<?xml version="1.0" encoding="UTF-8" standalone="no"?>
<!DOCTYPE svg PUBLIC "-//W3C//DTD SVG 1.1//EN" "http://www.w3.org/Graphics/SVG/1.1/DTD/svg11.dtd">
<svg width="100%" height="100%" viewBox="0 0 608 577" version="1.1" xmlns="http://www.w3.org/2000/svg" xmlns:xlink="http://www.w3.org/1999/xlink" xml:space="preserve" style="fill-rule:evenodd;clip-rule:evenodd;stroke-linejoin:round;stroke-miterlimit:1.41421;">
    <g transform="matrix(1,0,0,1,-4267.56,-251.724)">
        <g transform="matrix(0.540236,0,0,0.466724,1426.19,0)">
            <g transform="matrix(2.27857,0,0,2.63746,-4544.18,-27.0683)">
                <path d="M4445.94,300.065C4442.77,298.964 4439.95,296.948 4437.86,294.21C4435.44,290.908 4432.45,288.535 4428.95,287.049C4423.16,284.609 4419.67,278.648 4420.38,272.406C4421.08,266.164 4425.82,261.133 4432.01,260.05C4432,260 4432,260 4432,260C4445.46,264.834 4452.89,259.045 4454.05,242.207C4454.65,233.719 4459.59,226.143 4467.11,222.16C4473.45,218.781 4480.1,216.344 4487.18,215.173C4495.18,213.827 4503.38,215.774 4509.91,220.571C4516.45,225.369 4520.77,232.609 4521.89,240.641C4522.2,242.858 4522.39,244.986 4522.44,247.023C4527.73,247.821 4533,249.365 4538.08,251.697L4568.84,265.819C4566.68,263.222 4565.62,259.796 4566.05,256.294C4566.72,250.915 4570.78,246.579 4576.1,245.554C4588.73,243.074 4600.92,248.406 4612.64,261.81C4628.11,252.443 4635.92,262.623 4639.7,283.083C4640.72,288.1 4640.03,293.154 4637.95,297.555L4688.97,320.981C4694.56,315.576 4702.04,312.541 4709.83,312.54C4719.81,312.497 4727.67,314.833 4733.23,319.746C4737.59,323.626 4739.94,329.27 4739.63,335.09C4739.36,339.913 4739.74,344.171 4740.47,348.052C4776.27,374.853 4797.53,417.801 4796.07,463.702C4795.29,487.985 4794.51,512.45 4793.93,530.643C4793.35,549.09 4783.98,566.146 4768.73,576.539C4736.27,598.654 4677.99,638.365 4636.29,666.781C4606.47,687.098 4567.66,688.592 4536.37,670.626C4515.15,658.443 4491.04,644.601 4471.77,633.537C4448.14,619.972 4427.33,602.004 4410.47,580.606C4381.98,544.474 4337.03,487.443 4315.02,459.516C4306.61,448.845 4302.2,435.561 4302.58,421.977C4302.58,421.977 4302.58,421.977 4302.58,421.976C4303.08,403.851 4308.43,386.888 4317.41,372.387C4317.29,372.288 4317.16,372.189 4317.04,372.087C4316.9,371.99 4316.77,371.884 4316.65,371.778C4312.39,368.224 4309.89,362.995 4309.79,357.45C4309.69,351.906 4312.01,346.592 4316.14,342.89C4316.15,342.893 4316.16,342.888 4316.16,342.883C4322.56,337.152 4332.27,337.221 4338.59,343.044C4339.62,344.021 4340.66,344.872 4341.69,345.628C4356.04,334.678 4373.5,327.528 4392.62,325.721C4393.91,325.599 4395.19,325.478 4396.44,325.36C4415.69,323.541 4433.36,314.412 4445.94,300.065Z" style="fill:rgb(255,221,246);"/>
                <clipPath id="_clip1">
                    <path d="M4445.94,300.065C4442.77,298.964 4439.95,296.948 4437.86,294.21C4435.44,290.908 4432.45,288.535 4428.95,287.049C4423.16,284.609 4419.67,278.648 4420.38,272.406C4421.08,266.164 4425.82,261.133 4432.01,260.05C4432,260 4432,260 4432,260C4445.46,264.834 4452.89,259.045 4454.05,242.207C4454.65,233.719 4459.59,226.143 4467.11,222.16C4473.45,218.781 4480.1,216.344 4487.18,215.173C4495.18,213.827 4503.38,215.774 4509.91,220.571C4516.45,225.369 4520.77,232.609 4521.89,240.641C4522.2,242.858 4522.39,244.986 4522.44,247.023C4527.73,247.821 4533,249.365 4538.08,251.697L4568.84,265.819C4566.68,263.222 4565.62,259.796 4566.05,256.294C4566.72,250.915 4570.78,246.579 4576.1,245.554C4588.73,243.074 4600.92,248.406 4612.64,261.81C4628.11,252.443 4635.92,262.623 4639.7,283.083C4640.72,288.1 4640.03,293.154 4637.95,297.555L4688.97,320.981C4694.56,315.576 4702.04,312.541 4709.83,312.54C4719.81,312.497 4727.67,314.833 4733.23,319.746C4737.59,323.626 4739.94,329.27 4739.63,335.09C4739.36,339.913 4739.74,344.171 4740.47,348.052C4776.27,374.853 4797.53,417.801 4796.07,463.702C4795.29,487.985 4794.51,512.45 4793.93,530.643C4793.35,549.09 4783.98,566.146 4768.73,576.539C4736.27,598.654 4677.99,638.365 4636.29,666.781C4606.47,687.098 4567.66,688.592 4536.37,670.626C4515.15,658.443 4491.04,644.601 4471.77,633.537C4448.14,619.972 4427.33,602.004 4410.47,580.606C4381.98,544.474 4337.03,487.443 4315.02,459.516C4306.61,448.845 4302.2,435.561 4302.58,421.977C4302.58,421.977 4302.58,421.977 4302.58,421.976C4303.08,403.851 4308.43,386.888 4317.41,372.387C4317.29,372.288 4317.16,372.189 4317.04,372.087C4316.9,371.99 4316.77,371.884 4316.65,371.778C4312.39,368.224 4309.89,362.995 4309.79,357.45C4309.69,351.906 4312.01,346.592 4316.14,342.89C4316.15,342.893 4316.16,342.888 4316.16,342.883C4322.56,337.152 4332.27,337.221 4338.59,343.044C4339.62,344.021 4340.66,344.872 4341.69,345.628C4356.04,334.678 4373.5,327.528 4392.62,325.721C4393.91,325.599 4395.19,325.478 4396.44,325.36C4415.69,323.541 4433.36,314.412 4445.94,300.065Z"/>
                </clipPath>
                <g clip-path="url(#_clip1)">
                    <g transform="matrix(0.540236,0,0,0.466724,1920.19,-15)">
                        <g transform="matrix(1.85104,0,0,2.14259,-2639.93,0)">
                            <path d="M4002.84,469.73L4018,451L4031,451L4039.87,461.602L4035,523L4013,517C4013,517 4011.95,503.808 4011.37,496.59C4011.2,494.56 4010.5,492.629 4009.35,490.988L4001,497C3993.07,481.718 3988.14,462.957 3985.11,442L3986.68,441L4002.84,469.73Z" style="fill:rgb(255,118,135);"/>
                        </g>
                        <g transform="matrix(1.85104,0,0,2.14259,-2639.93,0)">
                            <path d="M4012.43,600.624L4010.43,700L4013,699.433L4029,603L4012.43,600.624Z" style="fill:rgb(255,178,199);"/>
                        </g>
                        <g transform="matrix(1.85104,0,0,2.14259,-2639.93,0)">
                            <path d="M4009,601L4033,604C4034.22,589.159 4034.7,575.24 4039.06,560.595C4039.62,558.737 4039.91,556.808 4039.93,554.867C4040,544.28 4038.65,533.664 4035,523L4013,517C4010.93,547.913 4009.62,575.853 4009,601Z" style="fill:rgb(186,186,186);"/>
                        </g>
                        <g transform="matrix(1.85104,0,0,2.14259,-2625.12,0)">
                            <path d="M3992,407C3992,407 3991.45,419.209 3991.16,425.455C3991.06,427.758 3992.46,429.863 3994.62,430.657C3998.41,432.049 4002.44,432.708 4006.75,432.157C4007.95,432.014 4009.15,432.419 4010.02,433.26C4010.89,434.101 4011.33,435.289 4011.23,436.494C4010.74,442.416 4010,451 4010,451L4023,451L4020,429C4015.74,412.4 4009.49,403.407 3992,407Z" style="fill:rgb(255,178,199);"/>
                        </g>
                        <g transform="matrix(1.85104,0,0,2.14259,-2625.12,0)">
                            <path d="M3990,409C3986.88,408.458 3988.14,408.035 3987,403C3989.86,399.216 3989.36,394.72 3999,394C3999,394 4012.26,397.867 4019.07,399.853C4021.44,400.546 4023.16,402.613 4023.41,405.077C4024.27,413.718 4026.26,433.562 4026.84,439.373C4026.87,439.674 4026.72,439.964 4026.46,440.12C4026.2,440.276 4025.88,440.269 4025.63,440.102C4020.34,436.498 4014.89,431.244 4009.2,423.631C4008.42,422.598 4008.01,421.342 4008.01,420.052C4008,419.137 4008,417.981 4008,416.763C4008,414.704 4007.18,412.73 4005.73,411.274C4004.27,409.818 4002.3,409 4000.24,409C3995.37,409 3990,409 3990,409Z" style="fill:rgb(20,20,20);"/>
                        </g>
                        <g transform="matrix(0.748535,-0.112295,0.192934,1.72308,1568.18,644.521)">
                            <rect x="4119" y="412" width="3.377" height="32" style="fill:rgb(36,36,36);"/>
                        </g>
                    </g>
                    <g transform="matrix(1,0,0,1,494,-15)">
                        <path d="M4036.36,332.757C4036.15,331.105 4037.01,329.499 4038.49,328.754C4040.5,327.749 4043.37,326.316 4045.74,325.131C4046.7,324.649 4047.84,324.674 4048.78,325.197C4049.72,325.72 4050.35,326.675 4050.45,327.747C4061.13,444.569 4054.69,569.563 4036.54,700.148C4036.19,702.627 4034.95,704.891 4033.04,706.508C4031.56,707.761 4029.72,709.311 4028.03,710.742C4027.21,711.44 4026.04,711.565 4025.09,711.059C4024.14,710.554 4023.59,709.518 4023.7,708.445C4028.56,663.564 4034.3,618.947 4038.62,575.026C4042.81,532.324 4039.88,490.635 4039.05,450.739C4038.21,410.511 4041.3,371.938 4036.36,332.757Z" style="fill:rgb(240,33,135);"/>
                    </g>
                    <g transform="matrix(0.540236,0,0,0.466724,1920.19,-15)">
                        <g transform="matrix(1.85104,0,0,2.14259,-2639.93,0)">
                            <path d="M4066,421.5L4098,400C4099.44,412.072 4099.05,422.215 4096,432C4091.06,433.993 4084.19,436.018 4073,435L4072,443L4057,442L4062,429L4066,421.5Z" style="fill:rgb(189,82,55);"/>
                        </g>
                        <g transform="matrix(1.85104,0,0,2.14259,-2636.95,-5.35648)">
                            <path d="M4074.3,396.647C4075.31,395.626 4076.8,395.236 4078.18,395.63C4080.48,396.279 4084.13,397.322 4086.76,398.075C4088.83,398.666 4091.05,398.383 4092.9,397.293C4097.76,394.437 4107,389 4107,389C4107,389 4107.53,390.065 4108.05,391.097C4108.64,392.274 4108.55,393.676 4107.82,394.771C4107.04,395.94 4106.06,397.411 4105.48,398.274C4105.18,398.737 4104.69,399.052 4104.14,399.143C4102.48,399.42 4099,400 4099,400C4099,400 4094.34,406.217 4093.23,407.69C4093.08,407.894 4092.88,408.064 4092.66,408.187C4089.41,409.978 4064,424 4064,424C4063.02,413.806 4066.67,404.438 4074.3,396.647Z" style="fill:rgb(20,20,20);"/>
                        </g>
                        <g transform="matrix(1.85104,0,0,2.14259,-2639.93,0)">
                            <path d="M4089.98,646.141L4102,679L4108.38,679C4119.63,632.599 4117.01,582.277 4111,531L4092,537L4089.98,646.141Z" style="fill:rgb(150,150,150);"/>
                        </g>
                        <g transform="matrix(1.85104,0,0,2.14259,-2639.93,0)">
                            <path d="M4062,537L4077.9,679L4083.04,679C4093.52,632.596 4101.71,585.682 4102,537C4087.28,535.032 4073.85,534.892 4062,537Z" style="fill:rgb(186,186,186);"/>
                        </g>
                        <g transform="matrix(1.85104,0,0,2.14259,-2639.93,0)">
                            <path d="M4105.06,502.132C4108.19,511.837 4110.23,521.788 4111,532L4098.81,537L4077.9,536C4069.37,537.267 4062.35,536.79 4058,536C4055.16,505.329 4053.97,472.663 4056.31,442L4072,443C4080.58,453.914 4088.13,465.155 4094.25,476.757L4121,451L4119,482L4105.06,502.132Z" style="fill:rgb(255,118,150);"/>
                        </g>
                        <g transform="matrix(1.83665,-0.266668,0.230381,2.12593,-2686.64,1109.29)">
                            <path d="M4125.99,432.124L4127,449L4121,457C4122.41,448.812 4124.68,440.513 4125.99,432.124Z" style="fill:rgb(189,82,55);"/>
                        </g>
                        <g transform="matrix(0.754795,0,0,2.14259,1879.21,0)">
                            <rect x="4119" y="412" width="3.377" height="32" style="fill:rgb(36,36,36);"/>
                        </g>
                        <g transform="matrix(1.85104,0,0,2.14259,-2639.93,0)">
                            <path d="M4082,679L4106,694L4076,691L4078,679L4082,679ZM4109,679L4132,686.5L4102,686.5L4103.07,679L4109,679Z" style="fill:rgb(0,2,41);"/>
                        </g>
                    </g>
                    <g transform="matrix(0.0619461,0,0,0.0619461,4255.6,336.545)">
                        <path d="M3557.57,564.215L3557.51,564.277C3557.51,564.277 3482.27,489.035 3427.87,434.639C3413.31,420.077 3405.13,400.326 3405.13,379.732C3405.13,359.138 3413.31,339.388 3427.87,324.825C3427.87,324.825 3427.88,324.824 3427.88,324.823C3442.44,310.261 3462.19,302.08 3482.78,302.08C3503.38,302.08 3523.13,310.261 3537.69,324.823L3557.57,344.708L3577.46,324.823C3592.02,310.261 3611.77,302.08 3632.37,302.08C3652.96,302.08 3672.71,310.261 3687.27,324.823C3687.27,324.824 3687.27,324.825 3687.27,324.825C3701.84,339.388 3710.02,359.138 3710.02,379.732C3710.02,400.326 3701.84,420.077 3687.27,434.639C3632.88,489.035 3557.64,564.277 3557.64,564.277L3557.57,564.215Z" style="fill:rgb(255,0,91);"/>
                    </g>
                    <g transform="matrix(0.0584727,0.0204515,-0.0204515,0.0584727,4432.17,262.659)">
                        <path d="M3557.57,564.215L3557.51,564.277C3557.51,564.277 3482.27,489.035 3427.87,434.639C3413.31,420.077 3405.13,400.326 3405.13,379.732C3405.13,359.138 3413.31,339.388 3427.87,324.825C3427.87,324.825 3427.88,324.824 3427.88,324.823C3442.44,310.261 3462.19,302.08 3482.78,302.08C3503.38,302.08 3523.13,310.261 3537.69,324.823L3557.57,344.708L3577.46,324.823C3592.02,310.261 3611.77,302.08 3632.37,302.08C3652.96,302.08 3672.71,310.261 3687.27,324.823C3687.27,324.824 3687.27,324.825 3687.27,324.825C3701.84,339.388 3710.02,359.138 3710.02,379.732C3710.02,400.326 3701.84,420.077 3687.27,434.639C3632.88,489.035 3557.64,564.277 3557.64,564.277L3557.57,564.215Z" style="fill:rgb(255,0,91);"/>
                    </g>
                    <g transform="matrix(0.0252684,0.0104844,-0.0104844,0.0252684,4526.21,319.669)">
                        <path d="M3557.57,564.215L3557.51,564.277C3557.51,564.277 3482.27,489.035 3427.87,434.639C3413.31,420.077 3405.13,400.326 3405.13,379.732C3405.13,359.138 3413.31,339.388 3427.87,324.825C3427.87,324.825 3427.88,324.824 3427.88,324.823C3442.44,310.261 3462.19,302.08 3482.78,302.08C3503.38,302.08 3523.13,310.261 3537.69,324.823L3557.57,344.708L3577.46,324.823C3592.02,310.261 3611.77,302.08 3632.37,302.08C3652.96,302.08 3672.71,310.261 3687.27,324.823C3687.27,324.824 3687.27,324.825 3687.27,324.825C3701.84,339.388 3710.02,359.138 3710.02,379.732C3710.02,400.326 3701.84,420.077 3687.27,434.639C3632.88,489.035 3557.64,564.277 3557.64,564.277L3557.57,564.215Z" style="fill:rgb(255,0,91);"/>
                    </g>
                    <g transform="matrix(0.022719,-0.0152402,0.0152402,0.022719,4379.03,428.088)">
                        <path d="M3557.57,564.215L3557.51,564.277C3557.51,564.277 3482.27,489.035 3427.87,434.639C3413.31,420.077 3405.13,400.326 3405.13,379.732C3405.13,359.138 3413.31,339.388 3427.87,324.825C3427.87,324.825 3427.88,324.824 3427.88,324.823C3442.44,310.261 3462.19,302.08 3482.78,302.08C3503.38,302.08 3523.13,310.261 3537.69,324.823L3557.57,344.708L3577.46,324.823C3592.02,310.261 3611.77,302.08 3632.37,302.08C3652.96,302.08 3672.71,310.261 3687.27,324.823C3687.27,324.824 3687.27,324.825 3687.27,324.825C3701.84,339.388 3710.02,359.138 3710.02,379.732C3710.02,400.326 3701.84,420.077 3687.27,434.639C3632.88,489.035 3557.64,564.277 3557.64,564.277L3557.57,564.215Z" style="fill:rgb(255,0,91);"/>
                    </g>
                    <g transform="matrix(0.0252684,0.0104844,-0.0104844,0.0252684,4550.52,333.881)">
                        <path d="M3557.57,564.215L3557.51,564.277C3557.51,564.277 3482.27,489.035 3427.87,434.639C3413.31,420.077 3405.13,400.326 3405.13,379.732C3405.13,359.138 3413.31,339.388 3427.87,324.825C3427.87,324.825 3427.88,324.824 3427.88,324.823C3442.44,310.261 3462.19,302.08 3482.78,302.08C3503.38,302.08 3523.13,310.261 3537.69,324.823L3557.57,344.708L3577.46,324.823C3592.02,310.261 3611.77,302.08 3632.37,302.08C3652.96,302.08 3672.71,310.261 3687.27,324.823C3687.27,324.824 3687.27,324.825 3687.27,324.825C3701.84,339.388 3710.02,359.138 3710.02,379.732C3710.02,400.326 3701.84,420.077 3687.27,434.639C3632.88,489.035 3557.64,564.277 3557.64,564.277L3557.57,564.215Z" style="fill:rgb(255,0,91);"/>
                    </g>
                </g>
            </g>
        </g>
    </g>
</svg>
