<svg width="1618" height="1237" viewBox="0 0 1618 1237" fill="none" xmlns="http://www.w3.org/2000/svg">
<path d="M1135 550H935C907.386 550 885 527.614 885 500V300C885 161.929 996.929 50 1135 50C1273.07 50 1385 161.929 1385 300C1385 438.071 1273.07 550 1135 550Z" stroke="#F25151" stroke-width="100"/>
<path d="M482 628H682C709.614 628 732 605.614 732 578V378C732 239.929 620.071 128 482 128C343.929 128 232 239.929 232 378C232 516.071 343.929 628 482 628Z" stroke="#F25151" stroke-width="100"/>
<path d="M145.728 906.264V926.712H91.008V1107H64.8V926.712H9.792V906.264H145.728ZM388.229 949.176L338.981 1107H311.909L273.893 981.72L235.877 1107H208.805L159.269 949.176H186.053L222.341 1081.66L261.509 949.176H288.581L326.597 1080.79L362.309 949.176H388.229ZM483.071 1109.59C468.287 1109.59 454.847 1106.23 442.751 1099.51C430.847 1092.79 421.439 1083.29 414.527 1071C407.807 1058.52 404.447 1044.12 404.447 1027.8C404.447 1011.67 407.903 997.464 414.815 985.176C421.919 972.696 431.519 963.192 443.615 956.664C455.711 949.944 469.247 946.584 484.223 946.584C499.199 946.584 512.735 949.944 524.831 956.664C536.927 963.192 546.431 972.6 553.343 984.888C560.447 997.176 563.999 1011.48 563.999 1027.8C563.999 1044.12 560.351 1058.52 553.055 1071C545.951 1083.29 536.255 1092.79 523.967 1099.51C511.679 1106.23 498.047 1109.59 483.071 1109.59ZM483.071 1087.42C492.479 1087.42 501.311 1085.21 509.567 1080.79C517.823 1076.18 524.447 1069.37 529.439 1060.34C534.623 1051.32 537.215 1040.47 537.215 1027.8C537.215 1015.13 534.719 1004.38 529.727 995.544C524.735 986.52 518.207 979.8 510.143 975.384C502.079 970.968 493.343 968.76 483.935 968.76C474.335 968.76 465.503 970.968 457.439 975.384C449.567 979.8 443.231 986.52 438.431 995.544C433.631 1004.38 431.231 1015.13 431.231 1027.8C431.231 1040.66 433.535 1051.61 438.143 1060.63C442.943 1069.46 449.279 1076.18 457.151 1080.79C465.023 1085.21 473.663 1087.42 483.071 1087.42ZM838.895 906.264V1107H812.687V1015.42H710.447V1107H684.239V906.264H710.447V994.968H812.687V906.264H838.895ZM873.572 1027.51C873.572 1011.38 876.836 997.272 883.364 985.176C889.892 972.888 898.82 963.384 910.148 956.664C921.668 949.944 934.436 946.584 948.452 946.584C962.276 946.584 974.276 949.56 984.452 955.512C994.628 961.464 1002.21 968.952 1007.2 977.976V949.176H1033.7V1107H1007.2V1077.62C1002.02 1086.84 994.244 1094.52 983.876 1100.66C973.7 1106.62 961.796 1109.59 948.164 1109.59C934.148 1109.59 921.476 1106.14 910.148 1099.22C898.82 1092.31 889.892 1082.62 883.364 1070.14C876.836 1057.66 873.572 1043.45 873.572 1027.51ZM1007.2 1027.8C1007.2 1015.9 1004.8 1005.53 1000 996.696C995.204 987.864 988.676 981.144 980.42 976.536C972.356 971.736 963.428 969.336 953.636 969.336C943.844 969.336 934.916 971.64 926.852 976.248C918.788 980.856 912.356 987.576 907.556 996.408C902.756 1005.24 900.356 1015.61 900.356 1027.51C900.356 1039.61 902.756 1050.17 907.556 1059.19C912.356 1068.02 918.788 1074.84 926.852 1079.64C934.916 1084.25 943.844 1086.55 953.636 1086.55C963.428 1086.55 972.356 1084.25 980.42 1079.64C988.676 1074.84 995.204 1068.02 1000 1059.19C1004.8 1050.17 1007.2 1039.7 1007.2 1027.8ZM1104.2 893.88V1107H1077.99V893.88H1104.2ZM1207.62 1082.23L1256.58 949.176H1284.8L1222.88 1107H1192.06L1130.14 949.176H1158.37L1207.62 1082.23ZM1454.3 1021.46C1454.3 1026.26 1454.01 1031.45 1453.44 1037.02H1327.29C1328.06 1052.57 1333.25 1064.86 1342.85 1073.88C1352.64 1082.9 1364.54 1087.42 1378.56 1087.42C1389.89 1087.42 1399.29 1084.82 1406.78 1079.64C1414.46 1074.26 1419.84 1067.16 1422.91 1058.33H1451.13C1446.91 1073.5 1438.46 1085.88 1425.79 1095.48C1413.12 1104.89 1397.37 1109.59 1378.56 1109.59C1363.58 1109.59 1350.14 1106.23 1338.24 1099.51C1326.53 1092.79 1317.31 1083.29 1310.59 1071C1303.87 1058.52 1300.51 1044.12 1300.51 1027.8C1300.51 1011.48 1303.77 997.176 1310.3 984.888C1316.83 972.6 1325.95 963.192 1337.66 956.664C1349.57 949.944 1363.2 946.584 1378.56 946.584C1393.53 946.584 1406.69 949.848 1418.01 956.376C1429.53 962.904 1438.46 971.832 1444.8 983.16C1451.13 994.488 1454.3 1007.26 1454.3 1021.46ZM1427.23 1018.01C1427.23 1007.64 1425.02 998.808 1420.61 991.512C1416.19 984.024 1410.14 978.36 1402.46 974.52C1394.97 970.68 1386.62 968.76 1377.41 968.76C1363.97 968.76 1352.54 973.176 1343.13 982.008C1333.73 990.648 1328.54 1002.65 1327.58 1018.01H1427.23ZM1544.48 1109.59C1532.38 1109.59 1521.53 1107.58 1511.93 1103.54C1502.53 1099.32 1495.04 1093.56 1489.47 1086.26C1483.9 1078.78 1480.83 1070.23 1480.25 1060.63H1507.33C1508.09 1068.89 1511.74 1075.61 1518.27 1080.79C1524.99 1085.98 1533.73 1088.57 1544.48 1088.57C1554.65 1088.57 1562.53 1086.36 1568.09 1081.94C1573.85 1077.34 1576.73 1071.38 1576.73 1064.09C1576.73 1057.18 1573.66 1052.09 1567.52 1048.82C1561.37 1045.37 1551.87 1042.01 1539.01 1038.74C1527.29 1035.67 1517.79 1032.6 1510.49 1029.53C1503.2 1026.46 1496.96 1021.94 1491.77 1015.99C1486.59 1009.85 1484 1001.78 1484 991.8C1484 983.544 1486.3 975.96 1490.91 969.048C1495.52 962.136 1502.14 956.664 1510.78 952.632C1519.61 948.6 1529.79 946.584 1541.31 946.584C1558.78 946.584 1572.89 951 1583.65 959.832C1594.4 968.664 1600.16 980.76 1600.93 996.12H1574.72C1574.14 987.48 1570.78 980.568 1564.64 975.384C1558.69 970.2 1550.62 967.608 1540.45 967.608C1530.85 967.608 1523.26 969.72 1517.69 973.944C1512.32 978.168 1509.63 983.736 1509.63 990.648C1509.63 996.024 1511.36 1000.44 1514.81 1003.9C1518.27 1007.16 1522.49 1009.75 1527.49 1011.67C1532.48 1013.4 1539.58 1015.61 1548.8 1018.3C1560.32 1021.37 1569.53 1024.44 1576.45 1027.51C1583.36 1030.39 1589.31 1034.71 1594.3 1040.47C1599.29 1046.23 1601.79 1053.91 1601.79 1063.51C1601.79 1072.34 1599.39 1080.22 1594.59 1087.13C1589.98 1094.04 1583.36 1099.51 1574.72 1103.54C1566.08 1107.58 1556 1109.59 1544.48 1109.59Z" fill="black"/>
</svg>
