<svg width="572" height="572" viewBox="0 0 572 572" fill="none" xmlns="http://www.w3.org/2000/svg">
<g filter="url(#filter0_d)">
<rect x="30" y="10" width="512" height="512" rx="100" fill="white"/>
</g>
<path d="M211.5 335H253.389C268.372 335 280.518 322.854 280.518 307.87V265.259C280.518 227.008 249.51 196 211.259 196C173.036 196 142 227.101 142 265.379C142 303.791 173.144 335 211.5 335Z" stroke="#F25151" stroke-width="30"/>
<path d="M359.5 335H317.611C302.628 335 290.482 322.854 290.482 307.87V265.259C290.482 227.008 321.49 196 359.741 196C397.964 196 429 227.101 429 265.379C429 303.791 397.856 335 359.5 335Z" stroke="#F25151" stroke-width="30"/>
<defs>
<filter id="filter0_d" x="0" y="0" width="572" height="572" filterUnits="userSpaceOnUse" color-interpolation-filters="sRGB">
<feFlood flood-opacity="0" result="BackgroundImageFix"/>
<feColorMatrix in="SourceAlpha" type="matrix" values="0 0 0 0 0 0 0 0 0 0 0 0 0 0 0 0 0 0 127 0"/>
<feOffset dy="20"/>
<feGaussianBlur stdDeviation="15"/>
<feColorMatrix type="matrix" values="0 0 0 0 0.462882 0 0 0 0 0.462882 0 0 0 0 0.462882 0 0 0 0.25 0"/>
<feBlend mode="normal" in2="BackgroundImageFix" result="effect1_dropShadow"/>
<feBlend mode="normal" in="SourceGraphic" in2="effect1_dropShadow" result="shape"/>
</filter>
</defs>
</svg>
